<svg width="31" height="31" viewBox="0 0 31 31" fill="none" xmlns="http://www.w3.org/2000/svg">
<path d="M12.3994 13.9014L11.7031 15.813H13.112L12.3994 13.9014Z" fill="#E4E7EC"/>
<path d="M24.3945 5.96875H7.47574C6.79997 5.96875 6.24707 6.52135 6.24707 7.19675V24.1063C6.24707 24.7817 6.79997 25.3343 7.47574 25.3343H24.3945C25.0703 25.3343 25.6232 24.7817 25.6232 24.1063V7.19675C25.6232 6.51726 25.0703 5.96875 24.3945 5.96875ZM20.3481 12.7023H21.3884V17.8517H20.3481V12.7023ZM15.5768 12.7023H17.2478C17.8826 12.7023 18.2921 12.7268 18.4846 12.78C18.7795 12.8578 19.0252 13.0256 19.2259 13.2835C19.4266 13.5414 19.5249 13.8771 19.5249 14.2864C19.5249 14.6016 19.4675 14.8676 19.3529 15.0846C19.2382 15.3015 19.0908 15.4694 18.9146 15.5922C18.7385 15.715 18.5583 15.7968 18.374 15.8378C18.1242 15.8869 17.7679 15.9114 17.2928 15.9114H16.6129V17.8517H15.5768V12.7023ZM11.8621 12.7023H12.9638L15.0239 17.8517H13.8935L13.443 16.681H11.3829L10.957 17.8517H9.85117L11.8621 12.7023ZM21.245 23.8893H9.13035C8.33581 23.8893 7.6928 23.2467 7.6928 22.4526V10.3773C7.6928 10.1521 7.8771 9.96793 8.10236 9.96793C8.32762 9.96793 8.51192 10.1521 8.51192 10.3773V22.4526C8.51192 22.7923 8.79041 23.0707 9.13035 23.0707H21.245C21.4703 23.0707 21.6546 23.2549 21.6546 23.48C21.6546 23.7051 21.4744 23.8893 21.245 23.8893Z" fill="#E4E7EC"/>
<path d="M18.0097 14.9534C18.1489 14.9002 18.2554 14.8142 18.3332 14.6996C18.411 14.585 18.452 14.4499 18.452 14.2984C18.452 14.1101 18.3988 13.9546 18.2882 13.8359C18.1776 13.7131 18.0383 13.6394 17.8704 13.6067C17.7476 13.5821 17.4977 13.5698 17.1209 13.5698H16.6172V15.0311H17.1865C17.596 15.0352 17.8704 15.0066 18.0097 14.9534Z" fill="#E4E7EC"/>
<path d="M21.2456 23.0705H9.1309C8.79097 23.0705 8.51247 22.7922 8.51247 22.4524V10.3771C8.51247 10.152 8.32817 9.96777 8.10292 9.96777C7.87766 9.96777 7.69336 10.152 7.69336 10.3771V22.4524C7.69336 23.2465 8.33636 23.8892 9.1309 23.8892H21.2456C21.4708 23.8892 21.6551 23.705 21.6551 23.4798C21.6551 23.2547 21.4749 23.0705 21.2456 23.0705Z" fill="#CB0FF2"/>
<path d="M30.1164 11.159C30.5669 11.159 30.9355 10.7906 30.9355 10.3403C30.9355 9.89003 30.5669 9.52163 30.1164 9.52163H27.2618V7.19662C27.2618 5.61659 25.9758 4.33129 24.3949 4.33129H23.2564V1.57648C23.2564 1.12621 22.8878 0.757812 22.4373 0.757812C21.9867 0.757812 21.6181 1.12621 21.6181 1.57648V4.33129H19.7137V1.57648C19.7137 1.12621 19.3451 0.757812 18.8946 0.757812C18.4441 0.757812 18.0755 1.12621 18.0755 1.57648V4.33129H16.171V1.57648C16.171 1.12621 15.8024 0.757812 15.3519 0.757812C14.9014 0.757812 14.5328 1.12621 14.5328 1.57648V4.33129H12.6284V1.57648C12.6284 1.12621 12.2598 0.757812 11.8093 0.757812C11.3588 0.757812 10.9902 1.12621 10.9902 1.57648V4.33129H7.47616C5.89527 4.33129 4.60927 5.61659 4.60927 7.19662V9.52163H1.75466C1.30415 9.52163 0.935547 9.89003 0.935547 10.3403C0.935547 10.7906 1.30415 11.159 1.75466 11.159H4.60927V13.0624H1.75466C1.30415 13.0624 0.935547 13.4308 0.935547 13.881C0.935547 14.3313 1.30415 14.6997 1.75466 14.6997H4.60927V16.6031H1.75466C1.30415 16.6031 0.935547 16.9715 0.935547 17.4218C0.935547 17.872 1.30415 18.2404 1.75466 18.2404H4.60927V20.1438H1.75466C1.30415 20.1438 0.935547 20.5122 0.935547 20.9625C0.935547 21.4127 1.30415 21.7811 1.75466 21.7811H4.60927V24.1062C4.60927 25.6862 5.89527 26.9715 7.47616 26.9715H8.73759V29.9391C8.73759 30.3894 9.1062 30.7578 9.55671 30.7578C10.0072 30.7578 10.3758 30.3894 10.3758 29.9391V26.9715H12.2803V29.9391C12.2803 30.3894 12.6489 30.7578 13.0994 30.7578C13.5499 30.7578 13.9185 30.3894 13.9185 29.9391V26.9715H15.8229V29.9391C15.8229 30.3894 16.1915 30.7578 16.642 30.7578C17.0925 30.7578 17.4611 30.3894 17.4611 29.9391V26.9715H19.3656V29.9391C19.3656 30.3894 19.7342 30.7578 20.1847 30.7578C20.6352 30.7578 21.0038 30.3894 21.0038 29.9391V26.9715H24.3949C25.9758 26.9715 27.2618 25.6862 27.2618 24.1062V21.7811H30.1164C30.5669 21.7811 30.9355 21.4127 30.9355 20.9625C30.9355 20.5122 30.5669 20.1438 30.1164 20.1438H27.2618V18.2404H30.1164C30.5669 18.2404 30.9355 17.872 30.9355 17.4218C30.9355 16.9715 30.5669 16.6031 30.1164 16.6031H27.2618V14.6997H30.1164C30.5669 14.6997 30.9355 14.3313 30.9355 13.881C30.9355 13.4308 30.5669 13.0624 30.1164 13.0624H27.2618V11.159H30.1164ZM25.6236 24.1021C25.6236 24.7775 25.0707 25.3301 24.3949 25.3301H7.47616C6.80039 25.3301 6.24749 24.7775 6.24749 24.1021V7.19662C6.24749 6.52122 6.80039 5.96862 7.47616 5.96862H24.3949C25.0707 5.96862 25.6236 6.52122 25.6236 7.19662V24.1021Z" fill="#6D05DD"/>
<path d="M11.3833 16.6809H13.4434L13.8939 17.8516H15.0243L12.9601 12.7021H11.8584L9.85156 17.8516H10.9574L11.3833 16.6809ZM12.399 13.9015L13.1075 15.8131H11.7028L12.399 13.9015ZM16.6174 15.9113H17.2973C17.7683 15.9113 18.1287 15.8868 18.3785 15.8376C18.5628 15.7967 18.743 15.7148 18.9191 15.592C19.0952 15.4692 19.2427 15.3014 19.3574 15.0845C19.472 14.8675 19.5294 14.6015 19.5294 14.2863C19.5294 13.8769 19.4311 13.5413 19.2304 13.2834C19.0297 13.0255 18.784 12.8577 18.4891 12.7799C18.2966 12.7267 17.883 12.7021 17.2522 12.7021H15.5772V17.8516H16.6174V15.9113ZM16.6174 13.574H17.1212C17.498 13.574 17.7437 13.5863 17.8707 13.6109C18.0386 13.6395 18.1778 13.7173 18.2884 13.8401C18.399 13.9629 18.4522 14.1184 18.4522 14.3026C18.4522 14.4541 18.4113 14.5892 18.3335 14.7038C18.2557 14.8184 18.1451 14.9044 18.0099 14.9576C17.8707 15.0108 17.5963 15.0394 17.1867 15.0394H16.6174V13.574ZM20.3485 12.7021H21.3888V17.8516H20.3485V12.7021Z" fill="#6D05DD"/>
</svg>
