<svg width="64" height="64" viewBox="0 0 64 64" fill="none" xmlns="http://www.w3.org/2000/svg">
<path d="M20 48C22.2091 48 24 49.7909 24 52C24 54.2091 22.2091 56 20 56C17.7909 56 16 54.2091 16 52C16 49.7909 17.7909 48 20 48Z" stroke="#E4E7EC" stroke-width="4"/>
<path d="M44 48.0002C46.2091 48.0002 48 49.7909 48 52.0002C48 54.2093 46.2091 56.0002 44 56.0002C41.7909 56.0002 40 54.2093 40 52.0002C40 49.7909 41.7909 48.0002 44 48.0002Z" stroke="#E4E7EC" stroke-width="4"/>
<path d="M30.666 33.3333L38.666 25.3333M38.666 33.3333L30.666 25.3333" stroke="#E4E7EC" stroke-width="4" stroke-linecap="round"/>
<path d="M5.33301 8L6.02957 8.24491C9.50047 9.4652 11.2359 10.0754 12.2286 11.5279C13.2212 12.9806 13.2212 14.91 13.2212 18.769V26.0267C13.2212 33.8709 13.3899 36.4595 15.7003 38.8965C18.0107 41.3333 21.7292 41.3333 29.1663 41.3333H31.9997M43.3074 41.3333C47.4701 41.3333 49.5514 41.3333 51.0226 40.1344C52.4938 38.9355 52.9141 36.8971 53.7543 32.82L55.0871 26.354C56.0127 21.7165 56.4754 19.3978 55.2917 17.8589C54.1079 16.32 50.0631 16.32 45.5698 16.32H29.3957M13.2212 16.32H18.6663" stroke="#E4E7EC" stroke-width="4" stroke-linecap="round"/>
</svg>
