<svg width="37" height="38" viewBox="0 0 37 38" fill="none" xmlns="http://www.w3.org/2000/svg">
<g filter="url(#filter0_d_175_18)">
<path d="M20.7035 0.507812C17.2582 0.507812 14.4658 3.76563 14.4658 7.78516C14.4658 8.95703 14.9982 10.3867 15.7482 11.8203C16.2571 12.7891 16.8631 13.7617 17.4792 14.6563C19.073 16.9844 20.7035 18.8203 20.7035 18.8203C20.7035 18.8203 21.2962 18.1523 22.1198 17.1094C22.5886 16.5117 23.1343 15.7969 23.6835 15.0078C25.2872 12.7148 26.9413 9.85156 26.9413 7.78516C26.9413 3.76563 24.1489 0.507812 20.7035 0.507812ZM23.3085 14.3047C23.0406 14.6953 22.7694 15.0703 22.5082 15.4219C22.2471 15.7734 21.9926 16.1055 21.7549 16.4102C21.3364 16.9453 20.9714 17.3906 20.7035 17.7109C20.285 17.2109 19.6221 16.4023 18.9022 15.4258C18.641 15.0742 18.3732 14.7031 18.1053 14.3125C17.6533 13.6602 17.2515 13.0352 16.8966 12.4375C16.5585 11.8672 16.2672 11.3281 16.0227 10.8164C15.4335 9.58203 15.1321 8.55859 15.1321 7.77734C15.1321 6.04297 15.7114 4.41016 16.7627 3.18359C17.814 1.95703 19.2136 1.28125 20.7002 1.28125C22.1868 1.28125 23.5864 1.95703 24.6377 3.18359C25.689 4.41016 26.2683 6.04297 26.2683 7.77734C26.2683 8.55859 25.9703 9.57813 25.381 10.8086C24.8855 11.8594 24.189 13.0313 23.3085 14.3047Z" fill="#CB0FF2"/>
<path d="M20.7049 5.15234C21.9404 5.15234 22.9482 6.32812 22.9482 7.76953C22.9482 9.21094 21.9404 10.3867 20.7049 10.3867C19.4694 10.3867 18.4616 9.21094 18.4616 7.76953C18.4616 6.32812 19.4661 5.15234 20.7049 5.15234ZM20.7049 4.37109C19.0978 4.37109 17.792 5.89063 17.792 7.76953C17.792 9.64453 19.0944 11.168 20.7049 11.168C22.3121 11.168 23.6179 9.64844 23.6179 7.76953C23.6179 5.89063 22.3121 4.37109 20.7049 4.37109Z" fill="#CB0FF2"/>
<path d="M31.4252 11.7656L24.8728 14.5117L23.6808 15.0117C23.1317 15.7969 22.5859 16.5156 22.1172 17.1133L22.1808 17.1484V33.4219L21.7556 33.1914L20.2054 32.3477L13.1004 28.4844L12.8125 28.3281V12.1172L17.4799 14.6562C16.8638 13.7578 16.2578 12.7891 15.7489 11.8203L13.1507 10.4062L13.0268 10.3398L12.7388 10.1836L12.4777 10.0391L12.404 10.0703L2.5 14.2227V34.2148L12.4777 30.0312L20.2054 34.2344L21.7556 35.0781L22.5156 35.4922L32.5 31.3086V11.3164L31.4252 11.7656ZM12.1429 28.3477L11.9788 28.418L3.97321 31.7734V15.4297L12.1429 12.0039V28.3477ZM31.0268 30.1016L22.8504 33.5273V17.1836L23.0212 17.1133L31.0268 13.7578V30.1016Z" fill="#E4E7EC"/>
</g>
<defs>
<filter id="filter0_d_175_18" x="-1.5" y="0.507812" width="38" height="42.9844" filterUnits="userSpaceOnUse" color-interpolation-filters="sRGB">
<feFlood flood-opacity="0" result="BackgroundImageFix"/>
<feColorMatrix in="SourceAlpha" type="matrix" values="0 0 0 0 0 0 0 0 0 0 0 0 0 0 0 0 0 0 127 0" result="hardAlpha"/>
<feOffset dy="4"/>
<feGaussianBlur stdDeviation="2"/>
<feComposite in2="hardAlpha" operator="out"/>
<feColorMatrix type="matrix" values="0 0 0 0 0 0 0 0 0 0 0 0 0 0 0 0 0 0 0.25 0"/>
<feBlend mode="normal" in2="BackgroundImageFix" result="effect1_dropShadow_175_18"/>
<feBlend mode="normal" in="SourceGraphic" in2="effect1_dropShadow_175_18" result="shape"/>
</filter>
</defs>
</svg>
