<svg width="15" height="15" viewBox="0 0 15 15" fill="none" xmlns="http://www.w3.org/2000/svg">
<path d="M13.1772 6.5499L6.81358 0.186388C6.56511 -0.0621386 6.16215 -0.0621385 5.91365 0.186443C5.66518 0.43497 5.66518 0.837879 5.91365 1.08638L11.8273 6.99989L5.91365 12.9136C5.66518 13.1622 5.66518 13.5651 5.91365 13.8136C6.0379 13.9378 6.20079 14 6.36359 14C6.52639 14 6.68934 13.9379 6.81358 13.8136L13.1772 7.4498C13.2965 7.33048 13.3636 7.16863 13.3636 6.99986C13.3636 6.83107 13.2966 6.66922 13.1772 6.5499Z" fill="#E4E7EC" fill-opacity="0.568627"/>
<path d="M8.27283 6.99984C8.27283 6.83104 8.20576 6.66917 8.08643 6.54984L1.72276 0.186388C1.47423 -0.0621386 1.07132 -0.0621386 0.822822 0.186443C0.57435 0.43497 0.57435 0.837879 0.822877 1.08638L6.73655 6.99989L0.822822 12.9137C0.57435 13.1622 0.57435 13.5651 0.822877 13.8136C0.947099 13.9379 1.10996 14 1.27282 14C1.43568 14 1.59856 13.9379 1.72281 13.8136L8.08646 7.4498C8.20576 7.3305 8.27283 7.1686 8.27283 6.99984Z" fill="#E4E7EC" fill-opacity="0.568627"/>
</svg>
