<svg width="64" height="64" viewBox="0 0 64 64" fill="none" xmlns="http://www.w3.org/2000/svg">
<path d="M62.4 34.3876C62.1625 33.9626 61.6375 33.8126 61.2125 34.0376L56.5 36.6376L54.65 37.6626L35 48.4626C33.6875 49.1876 32.0375 48.7001 31.325 47.4001C30.975 46.7626 30.9 46.0376 31.1 45.3376C31.3 44.6376 31.7625 44.0626 32.4 43.7251L56.525 30.4626L58.625 29.3126C59.05 29.0751 59.2 28.5501 58.975 28.1251C58.7375 27.7001 58.2125 27.5501 57.7875 27.7751L56.725 28.3626L53.65 14.0001C53.5 13.2251 53 12.5751 52.275 12.2376C51.55 11.9001 50.7375 11.9251 50.0375 12.3126L19.6375 29.0001L15.4 24.6501C15.125 24.3626 14.7 24.3001 14.35 24.4876L9.17501 27.3376C8.75001 27.5751 8.60001 28.1001 8.82501 28.5251C9.06251 28.9501 9.58751 29.1001 10.0125 28.8751L14.6125 26.3501L18.8375 30.7001L30.6375 42.8376C30.0625 43.3751 29.6375 44.0626 29.4125 44.8501C29.075 46.0001 29.2125 47.2001 29.7875 48.2376C30.6 49.7126 32.125 50.5501 33.7 50.5501C34.425 50.5501 35.1625 50.3751 35.8375 50.0001L37.2875 49.2001C37.3625 49.4251 37.4625 49.6501 37.575 49.8626C38.1125 50.8376 39 51.5501 40.0625 51.8501C40.45 51.9626 40.8375 52.0126 41.225 52.0126C41.9125 52.0126 42.6 51.8376 43.225 51.5001C44.2 50.9626 44.9125 50.0876 45.2125 49.0126C45.525 47.9501 45.4 46.8251 44.8625 45.8501C44.75 45.6376 44.6125 45.4376 44.4625 45.2501L51.225 41.5376C51.3 41.7626 51.4 41.9876 51.5125 42.2001C52.05 43.1751 52.9375 43.8876 54 44.1876C54.3875 44.3001 54.775 44.3501 55.1625 44.3501C55.85 44.3501 56.5375 44.1751 57.1625 43.8376C58.1375 43.3001 58.85 42.4251 59.15 41.3501C59.4625 40.2876 59.3375 39.1626 58.8 38.1876C58.6875 37.9751 58.55 37.7751 58.4 37.5876L62.05 35.5876C62.4875 35.3376 62.6375 34.8126 62.4 34.3876ZM49.3375 17.2751C49.8125 17.1751 50.275 17.4751 50.375 17.9501L52.4125 27.4376C52.5125 27.9126 52.2125 28.3751 51.7375 28.4751C51.675 28.4876 51.6125 28.5001 51.55 28.5001C51.15 28.5001 50.7875 28.2251 50.7 27.8126L48.6625 18.3251C48.5625 17.8376 48.8625 17.3751 49.3375 17.2751Z" fill="#0E71D0"/>
<path d="M12.425 33.3125C12.425 32.825 12.0375 32.4375 11.55 32.4375H2.36249C1.87499 32.4375 1.48749 32.825 1.48749 33.3125C1.48749 33.8 1.87499 34.1875 2.36249 34.1875H11.55C12.0375 34.1875 12.425 33.8 12.425 33.3125Z" fill="#E4E7EC"/>
<path d="M11.45 45.4629C11.45 45.9504 11.8375 46.3379 12.325 46.3379H23.6625C24.15 46.3379 24.5375 45.9504 24.5375 45.4629C24.5375 44.9754 24.15 44.5879 23.6625 44.5879H12.325C11.8375 44.5879 11.45 44.9754 11.45 45.4629Z" fill="#E4E7EC"/>
<path d="M4.95001 40.4375C4.95001 40.925 5.33751 41.3125 5.82501 41.3125H21.1625C21.65 41.3125 22.0375 40.925 22.0375 40.4375C22.0375 39.95 21.65 39.5625 21.1625 39.5625H5.82501C5.33751 39.5625 4.95001 39.95 4.95001 40.4375Z" fill="#E4E7EC"/>
<path d="M19.475 37.4248C19.9625 37.4248 20.35 37.0373 20.35 36.5498C20.35 36.0623 19.9625 35.6748 19.475 35.6748H15.3625C14.875 35.6748 14.4875 36.0623 14.4875 36.5498C14.4875 37.0373 14.875 37.4248 15.3625 37.4248H19.475Z" fill="#E4E7EC"/>
<path d="M26.4875 41H24.575C24.0875 41 23.7 41.3875 23.7 41.875C23.7 42.3625 24.0875 42.75 24.575 42.75H26.4875C26.975 42.75 27.3625 42.3625 27.3625 41.875C27.3625 41.3875 26.975 41 26.4875 41Z" fill="#E4E7EC"/>
<path d="M26.4875 48.5H19.2375C18.75 48.5 18.3625 48.8875 18.3625 49.375C18.3625 49.8625 18.75 50.25 19.2375 50.25H26.4875C26.975 50.25 27.3625 49.8625 27.3625 49.375C27.3625 48.8875 26.975 48.5 26.4875 48.5Z" fill="#E4E7EC"/>
<path d="M14.5375 48.5H9.07501C8.58751 48.5 8.20001 48.8875 8.20001 49.375C8.20001 49.8625 8.58751 50.25 9.07501 50.25H14.5375C15.025 50.25 15.4125 49.8625 15.4125 49.375C15.4125 48.8875 15.0125 48.5 14.5375 48.5Z" fill="#E4E7EC"/>
<path d="M6.39996 44.1875H3.52496C3.03746 44.1875 2.64996 44.575 2.64996 45.0625C2.64996 45.55 3.03746 45.9375 3.52496 45.9375H6.39996C6.88746 45.9375 7.27496 45.55 7.27496 45.0625C7.27496 44.575 6.88746 44.1875 6.39996 44.1875Z" fill="#E4E7EC"/>
<path d="M9.07499 37.4248C9.56249 37.4248 9.94999 37.0373 9.94999 36.5498C9.94999 36.0623 9.56249 35.6748 9.07499 35.6748H7.61249C7.12499 35.6748 6.73749 36.0623 6.73749 36.5498C6.73749 37.0373 7.12499 37.4248 7.61249 37.4248H9.07499Z" fill="#E4E7EC"/>
</svg>
