<svg width="16" height="16" viewBox="0 0 16 16" fill="none" xmlns="http://www.w3.org/2000/svg">
<path d="M4.46952 3.45051C4.18785 3.16884 3.73104 3.16884 3.44937 3.45051C2.87848 4.02135 2.56409 4.78043 2.56409 5.58769C2.56409 6.39496 2.87848 7.15398 3.44937 7.72482C3.73098 8.00643 4.18774 8.0066 4.46952 7.72482C4.75125 7.44309 4.75125 6.98634 4.46952 6.70467C4.17112 6.40627 4.00677 6.00959 4.00677 5.58769C4.00677 5.1658 4.17112 4.769 4.46952 4.47066C4.75125 4.18893 4.75125 3.73224 4.46952 3.45051Z" fill="#E4E7EC"/>
<path d="M15.475 12.948L10.5933 8.06636C11.6252 5.97742 11.2744 3.37333 9.53782 1.63663C8.48241 0.581226 7.07915 0 5.58655 0C4.09396 0 2.69069 0.581226 1.63523 1.63663C-0.543448 3.81542 -0.543448 7.36049 1.63523 9.53922C2.69069 10.5946 4.0939 11.1759 5.58655 11.1759C6.4618 11.1759 7.30623 10.9757 8.0679 10.5976L12.9466 15.4762C13.6448 16.1745 14.7768 16.1745 15.475 15.4762C16.1732 14.7782 16.1732 13.6462 15.475 12.948ZM2.65537 8.51913C1.03917 6.90287 1.03917 4.27304 2.65537 2.65678C3.43829 1.87387 4.47927 1.44268 5.58655 1.44268C6.69384 1.44268 7.73482 1.87387 8.51773 2.65678C11.1283 5.26745 9.25453 9.73323 5.58655 9.73323C4.47927 9.73323 3.43829 9.30205 2.65537 8.51913Z" fill="#E4E7EC"/>
</svg>
