<svg width="30" height="30" viewBox="0 0 30 30" fill="none" xmlns="http://www.w3.org/2000/svg">
<path d="M5.26611 0.449219L24.6958 0.351562V8.91406C24.6958 8.91406 27.0278 9.92188 27.3091 10.1055C28.1528 10.6641 29.4028 10.8867 29.4028 13.7109V26.3555C29.4028 27.9648 28.0981 29.2656 26.4927 29.2656H3.45361C1.84423 29.2656 0.543454 27.9609 0.543454 26.3555V14.4141C0.543454 14.2031 0.566891 13.8203 0.543454 13.3594C0.492672 12.3516 0.687985 11.3633 1.70361 10.6172C2.29345 10.1836 3.05127 9.89453 3.6958 9.60547C4.5708 9.21094 5.26611 8.90625 5.26611 8.90625V0.449219Z" fill="white"/>
<path d="M5.26562 10.6172L3.75391 11.293L3.73828 11.3008C3.10547 11.5508 2.70703 11.7852 2.46484 12.0234L5.26953 13.5391V10.6172H5.26562ZM26.1641 11.2773L24.6953 10.625V13.5313L27.4531 12.0391C27.1992 11.8203 26.793 11.5898 26.1641 11.2773Z" fill="#E4E7EC" fill-opacity="0.705882"/>
<path d="M4.86719 24.4375V16.9023C4.86719 16.6875 4.69141 16.5117 4.47656 16.5117C4.26172 16.5117 4.08594 16.6875 4.08594 16.9023V24.4375C4.08594 25.1992 4.70703 25.8203 5.46875 25.8203H17.1406C17.3555 25.8203 17.5312 25.6445 17.5312 25.4297C17.5312 25.2148 17.3555 25.0391 17.1406 25.0391H5.46484C5.13672 25.0352 4.86719 24.7656 4.86719 24.4375Z" fill="#CB0FF2"/>
<path d="M29.2971 12.0977C29.2971 12.1055 29.301 12.1094 29.301 12.1133C29.301 12.1094 29.2971 12.1016 29.2971 12.0977ZM18.7189 13.5742C19.3205 13.2422 19.7971 12.7852 20.09 12.2695C20.1838 12.1836 20.2385 12.0703 20.2463 11.9453C20.258 11.9141 20.2736 11.8789 20.2854 11.8477H20.2463C20.2385 11.582 20.0158 11.3711 19.7463 11.3711C19.4885 11.3711 19.2736 11.5664 19.2502 11.8242H19.2424C18.8557 12.3086 18.3439 12.6484 17.7111 12.8906C17.0783 13.1328 16.3205 13.2891 15.4377 13.2891C14.5236 13.2891 13.7658 13.1094 13.0549 12.8203C12.3557 12.5391 11.7658 12.043 11.3674 11.4062C10.9768 10.7773 10.7814 10.1055 10.7814 9.33594C10.7814 8.54687 10.9807 7.78906 11.3322 7.05859C11.6721 6.34375 12.2229 5.75391 12.9104 5.36328C13.6057 4.96094 14.4025 4.75391 15.3986 4.75391C16.5744 4.75391 17.4924 5.0625 18.1486 5.66406C18.8049 6.26562 19.0002 7.01562 19.0002 7.91016C19.0002 8.41016 18.9377 8.89062 18.7072 9.35547C18.4768 9.82031 18.2502 10.0742 17.8752 10.3516C17.5979 10.5625 16.9729 10.8086 16.7932 10.8086C16.7346 10.8086 16.6838 10.7852 16.6408 10.7383C16.5979 10.6953 16.5783 10.625 16.5783 10.5352C16.59 10.3672 16.6174 10.1992 16.6564 10.0312L17.4768 6.89453C17.5158 6.82422 17.5471 6.75 17.5471 6.66406L17.5432 6.64062L17.5471 6.625H17.5432V6.62109C17.5432 6.35937 17.3244 6.14453 17.0588 6.14453C16.9299 6.14453 16.8088 6.19141 16.715 6.28125C16.6252 6.37109 16.5705 6.49219 16.5705 6.62109L16.5744 6.66406C16.5744 6.69531 16.5861 6.72266 16.5939 6.75L16.5432 6.93359C16.2307 6.4375 15.4963 6.13281 14.8361 6.13281C14.2775 6.13281 13.4416 6.51953 12.8713 7.39063C12.4494 8.05859 12.2072 8.82422 12.176 9.60937C12.1525 10.3008 12.3596 10.9141 12.7619 11.3281C13.1643 11.7422 13.6604 11.8633 13.9689 11.8633C14.5354 11.8633 15.0393 11.6562 15.4729 11.2422C15.5158 11.4297 15.6252 11.5938 15.7814 11.7031C15.9338 11.8086 16.1643 11.8633 16.4729 11.8633C17.6096 11.8633 18.6564 11.2695 19.2346 10.4727C19.7307 9.79688 20.008 8.88672 20.008 7.96094C20.008 7.18359 19.883 6.46484 19.5002 5.80859C19.1174 5.15234 18.6252 4.64453 17.9025 4.28906C17.1799 3.93359 16.3557 3.75391 15.426 3.75391C14.3322 3.75391 13.3557 3.97656 12.5041 4.41797C11.6525 4.85938 10.9807 5.52344 10.4924 6.40234C10.0002 7.28516 9.7541 8.23437 9.7541 9.25781C9.74629 10.1602 9.96895 11.0469 10.4025 11.8398C10.84 12.6562 11.5354 13.3008 12.3791 13.6836C13.2658 14.0898 14.3127 14.293 15.5314 14.293C16.7814 14.293 17.8479 14.0547 18.7189 13.5742ZM15.7033 9.39844C15.5588 9.82422 15.3908 10.1484 15.1955 10.3711C15.0588 10.5273 14.9182 10.6406 14.7814 10.7148C14.5979 10.8164 14.4611 10.8945 14.2502 10.8945C13.9689 10.8945 13.6135 10.7852 13.426 10.5664C13.2346 10.3477 13.1408 10.0078 13.1408 9.54687C13.1408 9.20312 13.3205 8.80469 13.4572 8.35937C13.5939 7.91406 13.7971 7.6875 14.0666 7.44531C14.3361 7.20313 14.5822 7.13672 14.8986 7.13672C15.1955 7.13672 15.508 7.22266 15.6994 7.44141C15.8947 7.66016 16.0158 7.83203 16.0158 8.24219C16.0197 8.60547 15.8439 8.97266 15.7033 9.39844Z" fill="#6D05DD"/>
<path d="M29.3008 12.1133C29.3008 12.1055 29.2969 12.1016 29.2969 12.0977C28.957 10.918 27.8438 10.3672 26.8438 9.87109L26.8281 9.86328L24.6953 8.91016V0.351562L5.26562 0.449219V8.90625L3.14844 9.85156C1.93359 10.332 0.542969 11.1133 0.542969 12.8789V26.3594C0.542969 27.9609 1.84766 29.2656 3.44922 29.2656H26.4961C28.0977 29.2656 29.4023 27.9609 29.4023 26.3594V12.8789C29.4023 12.5977 29.3672 12.3438 29.3008 12.1133ZM24.6953 10.625L26.1641 11.2812C26.7969 11.5937 27.1992 11.8242 27.4531 12.0391L24.6953 13.5312V10.625ZM6.82812 9.39844V2.00391L23.1328 1.92187V14.375L15.3594 18.582C15.1211 18.7109 14.832 18.7109 14.5938 18.582L6.82812 14.3828V9.39844ZM5.26562 10.6172V13.5391L2.46094 12.0195C2.70313 11.7813 5.26562 10.6172 5.26562 10.6172ZM27.8398 26.3594C27.8398 27.1016 27.2383 27.7031 26.4961 27.7031H3.44922C2.70703 27.7031 2.10547 27.1016 2.10547 26.3594V13.6055L13.8438 19.9609C14.1953 20.1523 14.582 20.2461 14.9727 20.2461C15.3594 20.2461 15.7461 20.1523 16.1016 19.9609L27.8398 13.6055V26.3594Z" fill="#6D05DD"/>
</svg>
