<svg width="26" height="26" viewBox="0 0 26 26" fill="none" xmlns="http://www.w3.org/2000/svg">
<path d="M17.9626 18.0015L17.0316 18.9325C15.606 20.3581 14.1804 21.2891 13.0167 20.1253L6.38341 13.463C5.19059 12.2701 6.12157 10.8736 7.57624 9.44807L8.50723 8.51708L3.93957 3.97852L2.63037 5.28772C0.302898 7.61519 0.302898 11.3682 2.63037 13.6666L12.8131 23.8493C15.1405 26.1768 18.8936 26.1768 21.1919 23.8493L22.5011 22.5401L17.9626 18.0015Z" fill="#6D05DD"/>
<path d="M9.26394 8.10993L4.43443 3.28043C3.99803 2.84402 3.2707 2.84402 2.8343 3.28043L2.01968 4.09504C1.58328 4.53144 1.58328 5.25878 2.01968 5.69518L6.84918 10.5247C7.28559 10.9611 8.01292 10.9611 8.44932 10.5247L9.26394 9.71006C9.70034 9.27366 9.70034 8.57542 9.26394 8.10993Z" fill="#CB0FF2"/>
<path d="M23.1995 22.0455L18.37 17.216C17.9336 16.7796 17.2062 16.7796 16.7698 17.216L15.9552 18.0306C15.5188 18.467 15.5188 19.1943 15.9552 19.6307L20.7847 24.4602C21.2211 24.8966 21.9485 24.8966 22.3849 24.4602L23.1995 23.6456C23.6359 23.2092 23.6359 22.511 23.1995 22.0455Z" fill="#CB0FF2"/>
<path d="M12.7848 8.95348C12.6684 8.83711 12.5811 8.69164 12.552 8.54617C12.4357 8.08068 12.7266 7.64428 13.1921 7.52791C14.8213 7.14969 16.4796 7.64428 17.6434 8.80801C18.8071 9.97175 19.3017 11.6592 18.9235 13.2593C18.8071 13.7248 18.3707 13.9866 17.9052 13.8994C17.4397 13.783 17.1779 13.3466 17.2652 12.8811C17.4979 11.8337 17.207 10.7573 16.4505 10.0008C15.6941 9.24442 14.6177 8.92439 13.5703 9.18623C13.2794 9.24442 12.9884 9.15713 12.7848 8.95348Z" fill="#E4E7EC"/>
<path d="M12.0572 5.63674C11.9409 5.52037 11.8536 5.3749 11.8245 5.22943C11.7081 4.76394 11.999 4.32754 12.4645 4.21116C15.2284 3.57111 18.0796 4.38572 20.087 6.39317C22.0945 8.40061 22.9091 11.2227 22.269 14.0156C22.1526 14.4811 21.7162 14.7721 21.2507 14.6557C20.7853 14.5393 20.4943 14.1029 20.6107 13.6374C21.1053 11.4554 20.4652 9.18613 18.8942 7.61509C17.3231 6.04405 15.0539 5.3749 12.8719 5.89858C12.5518 5.92767 12.2609 5.84039 12.0572 5.63674Z" fill="#E4E7EC"/>
<path d="M11.3297 2.32002C11.2133 2.20365 11.126 2.05818 11.097 1.91271C10.9806 1.44722 11.2715 1.01082 11.737 0.894446C15.6355 -0.00744852 19.6795 1.15629 22.5016 3.97834C25.3236 6.8004 26.4873 10.8153 25.5855 14.7429C25.4691 15.2084 25.0327 15.4993 24.5672 15.3829C24.1017 15.2666 23.8108 14.8302 23.9271 14.3647C24.6836 11.0189 23.6944 7.58592 21.3087 5.20027C18.894 2.78552 15.461 1.79634 12.1443 2.58186C11.8243 2.61096 11.5334 2.52368 11.3297 2.32002Z" fill="#E4E7EC"/>
</svg>
